<?xml version="1.0" standalone="no"?>
<!DOCTYPE svg PUBLIC "-//W3C//DTD SVG 20010904//EN"
 "http://www.w3.org/TR/2001/REC-SVG-20010904/DTD/svg10.dtd">
<svg version="1.0" xmlns="http://www.w3.org/2000/svg"
 width="310.000000pt" height="310.000000pt" viewBox="0 0 310.000000 310.000000"
 preserveAspectRatio="xMidYMid meet">

<g transform="translate(0.000000,310.000000) scale(0.100000,-0.100000)"
fill="#ffffff" stroke="none">
<path d="M1135 2926 c-11 -57 2 -199 25 -267 21 -60 75 -148 114 -183 21 -18
20 -19 -44 -14 -74 6 -144 42 -217 112 l-43 40 0 -67 0 -67 -107 0 -108 1 -77
74 c-61 59 -78 81 -78 104 0 40 -39 94 -78 105 -90 25 -164 -62 -127 -150 15
-37 74 -68 113 -59 24 5 39 -5 120 -80 l92 -85 145 0 c139 0 145 -1 156 -22 7
-13 30 -44 52 -70 39 -47 43 -72 13 -97 -9 -8 -23 1 -56 34 l-44 45 -214 0
c-199 0 -216 1 -239 20 -30 24 -54 25 -92 5 -33 -16 -41 -33 -41 -80 0 -46 50
-89 94 -81 16 4 37 13 46 21 14 12 53 15 214 15 l198 0 28 -30 29 -31 -21 -34
c-20 -34 -21 -35 -86 -35 -43 1 -74 6 -86 15 -50 38 -126 1 -126 -61 0 -63 55
-98 112 -69 39 19 122 21 114 3 -2 -7 -12 -37 -21 -65 l-16 -53 -123 0 c-120
0 -123 0 -148 28 -15 15 -30 39 -33 55 -15 57 -79 74 -120 32 -43 -42 -24
-107 34 -120 16 -3 50 -24 74 -46 l45 -39 121 0 c136 0 129 5 115 -82 l-7 -38
-201 0 -202 0 -33 35 c-29 31 -38 35 -82 35 -41 0 -54 -5 -74 -26 -31 -33 -38
-57 -31 -99 15 -77 113 -111 174 -60 30 25 30 25 241 25 l211 0 0 -65 0 -65
-57 0 -58 -1 -104 -99 c-113 -109 -145 -122 -180 -79 -12 15 -32 23 -67 26
-45 5 -53 2 -82 -25 -27 -25 -32 -37 -32 -74 1 -101 106 -144 177 -73 29 29
43 35 77 35 38 0 48 7 146 100 103 99 106 100 149 98 45 -3 45 -3 58 -53 7
-27 13 -56 13 -62 0 -18 -33 -16 -74 4 -29 13 -40 14 -64 4 -51 -21 -66 -80
-31 -125 25 -32 75 -35 107 -6 13 13 35 20 59 20 35 0 40 -4 58 -41 l19 -41
-27 -24 c-25 -22 -38 -24 -120 -24 l-93 0 -69 -64 c-66 -61 -70 -63 -111 -58
-40 4 -47 1 -80 -32 -34 -34 -36 -40 -31 -82 5 -50 24 -76 68 -94 59 -25 139
28 139 92 0 30 9 42 64 91 l65 57 96 0 97 0 59 56 58 57 -15 36 c-30 69 -74
214 -89 293 -20 105 -20 322 1 428 61 326 298 579 609 651 69 16 229 16 295 0
110 -28 228 -109 267 -184 66 -131 160 -193 373 -247 78 -20 125 -54 154 -112
14 -28 26 -64 26 -80 0 -44 -36 -128 -70 -163 l-31 -32 -35 34 c-98 92 -259
137 -544 149 -164 8 -260 -5 -353 -48 -77 -35 -141 -99 -151 -149 -3 -17 -6
-75 -6 -129 l0 -98 43 -6 c26 -4 61 -1 92 8 27 9 49 14 50 13 0 -1 11 -36 24
-77 22 -71 113 -259 130 -270 5 -3 17 -19 27 -35 34 -55 131 -179 192 -245 56
-61 61 -64 87 -55 59 21 55 34 -41 156 -134 170 -184 246 -243 364 -102 209
-75 370 74 436 83 37 339 16 455 -37 62 -28 123 -83 141 -126 14 -35 32 -31
101 19 57 41 101 90 130 146 19 35 23 58 23 137 0 85 -3 100 -27 140 -55 94
-132 144 -270 179 -137 33 -184 63 -244 155 -61 91 -112 146 -174 186 -51 33
-174 75 -246 85 -46 7 -165 37 -209 54 -83 31 -209 106 -275 163 -75 65 -170
180 -189 229 -8 23 -9 22 -16 -15z m568 -1411 c-3 -9 -8 -14 -10 -11 -3 3 -2
9 2 15 9 16 15 13 8 -4z"/>
<path d="M808 2820 c-64 -50 -25 -160 57 -160 37 0 62 16 81 51 44 85 -62 169
-138 109z"/>
<path d="M2589 2271 c-34 -35 -36 -59 -8 -95 37 -47 110 -26 125 36 5 23 0 33
-26 58 -40 37 -54 38 -91 1z"/>
<path d="M1767 2220 c-78 -23 -137 -51 -156 -74 -12 -14 -2 -16 98 -16 62 0
110 -4 107 -8 -9 -15 15 -86 37 -110 33 -36 91 -47 144 -27 105 40 97 172 -13
225 -64 31 -133 34 -217 10z m248 -74 c21 -32 5 -66 -31 -66 -36 0 -54 43 -29
70 24 26 41 25 60 -4z"/>
<path d="M1377 2076 c-58 -54 -40 -145 33 -167 72 -22 130 20 130 94 0 83
-102 129 -163 73z"/>
<path d="M1202 1953 c-39 -16 -32 -93 9 -93 56 0 80 54 37 84 -24 17 -26 17
-46 9z"/>
<path d="M2506 1831 c-19 -21 -15 -51 10 -72 24 -20 64 4 64 39 0 51 -41 69
-74 33z"/>
<path d="M1147 1743 c-12 -11 -8 -43 6 -43 14 0 39 35 30 44 -8 8 -28 8 -36
-1z"/>
<path d="M1270 1695 c-10 -12 -10 -21 -2 -40 13 -29 34 -32 56 -9 19 18 19 20
6 45 -13 23 -43 25 -60 4z"/>
<path d="M1132 1544 c-29 -20 -31 -83 -2 -109 45 -41 120 -7 120 54 0 63 -64
93 -118 55z"/>
<path d="M2126 1308 c-36 -51 -8 -118 49 -118 36 0 75 36 75 70 0 10 -9 29
-21 44 -27 34 -81 36 -103 4z"/>
<path d="M1250 1295 c-20 -24 -8 -50 27 -53 25 -2 33 1 38 18 13 40 -38 68
-65 35z"/>
<path d="M1512 1290 c-1 -14 6 -52 16 -85 l18 -60 64 -3 c62 -3 120 11 120 30
0 5 -4 7 -9 4 -5 -4 -23 5 -39 19 -16 14 -35 25 -40 25 -6 0 -17 9 -24 19 -21
30 -64 47 -82 32 -12 -10 -15 -7 -19 16 -4 26 -4 26 -5 3z"/>
<path d="M1240 1083 c-27 -10 -50 -48 -50 -85 0 -45 45 -88 92 -88 35 0 88 48
88 80 0 72 -63 117 -130 93z"/>
<path d="M1421 796 c-19 -20 -22 -29 -14 -53 13 -38 53 -52 87 -29 33 21 34
55 3 84 -30 28 -48 28 -76 -2z"/>
<path d="M925 681 c-56 -58 -82 -77 -96 -74 -26 7 -68 -22 -84 -60 -34 -82 67
-152 139 -96 20 15 26 29 26 57 0 30 9 47 50 92 l50 55 27 -31 c42 -48 69 -59
99 -39 13 8 24 25 24 36 0 29 -107 139 -135 139 -15 0 -49 -27 -100 -79z"/>
<path d="M2468 719 c-21 -12 -24 -59 -6 -77 7 -7 21 -12 33 -12 12 0 26 5 33
12 19 19 15 66 -7 78 -24 12 -31 12 -53 -1z"/>
<path d="M1240 565 c-35 -36 -73 -65 -83 -65 -53 0 -88 -59 -67 -110 14 -35
37 -50 75 -50 32 0 75 41 75 72 0 15 19 40 56 73 77 70 79 76 41 113 l-33 32
-64 -65z"/>
<path d="M1588 349 c-25 -14 -24 -65 1 -79 30 -15 1083 -14 1099 2 7 7 12 24
12 38 0 14 -5 31 -12 38 -16 16 -1074 17 -1100 1z"/>
</g>
</svg>
